<?xml version="1.0" encoding="UTF-8" standalone="no"?>
<svg width="148px" height="18px" viewBox="0 0 148 18" version="1.1" xmlns="http://www.w3.org/2000/svg" xmlns:xlink="http://www.w3.org/1999/xlink">
    <!-- Generator: Sketch 3.8.3 (29802) - http://www.bohemiancoding.com/sketch -->
    <title>Group 2</title>
    <desc>Created with Sketch.</desc>
    <defs></defs>
    <g id="Page-1" stroke="none" stroke-width="1" fill="none" fill-rule="evenodd">
        <g id="screen-1" transform="translate(-184.000000, -21.000000)">
            <g id="Group">
                <g id="header">
                    <g id="Group-2" transform="translate(184.000000, 21.000000)">
                        <path d="M6.9140625,5.90625 L6.9140625,4.171875 L3.4453125,4.171875 L3.4453125,7.640625 L8.6484375,7.640625 C9.11718984,7.640625 9.52343578,7.80468586 9.8671875,8.1328125 C10.1953141,8.47656422 10.359375,8.88281016 10.359375,9.3515625 L10.359375,16.265625 C10.359375,16.7500024 10.1953141,17.1562484 9.8671875,17.484375 C9.52343578,17.8281267 9.11718984,18 8.6484375,18 L1.734375,18 C1.24999758,18 0.843751641,17.8281267 0.515625,17.484375 C0.171873281,17.1562484 0,16.7500024 0,16.265625 L0,12.8203125 L3.4453125,12.8203125 L3.4453125,14.5546875 L6.9140625,14.5546875 L6.9140625,11.0859375 L1.734375,11.0859375 C1.24999758,11.0859375 0.843751641,10.9218766 0.515625,10.59375 C0.171873281,10.2499983 0,9.83593992 0,9.3515625 L0,6.46875 L0,2.4375 C0,1.96874766 0.171873281,1.56250172 0.515625,1.21875 C0.843751641,0.890623359 1.24999758,0.7265625 1.734375,0.7265625 L8.6484375,0.7265625 C9.11718984,0.7265625 9.52343578,0.890623359 9.8671875,1.21875 C10.1953141,1.56250172 10.359375,1.96874766 10.359375,2.4375 L10.359375,5.90625 L6.9140625,5.90625 L6.9140625,5.90625 Z M22.6875,0.7265625 L12.328125,0.7265625 L12.328125,2.015625 L12.328125,4.171875 L15.7734375,4.171875 L15.7734375,18 L19.2421875,18 L19.2421875,4.171875 L22.6875,4.171875 L22.6875,0.7265625 L22.6875,0.7265625 Z M35.015625,4.171875 L35.015625,0.7265625 L28.1015625,0.7265625 L24.65625,0.7265625 L24.65625,4.171875 L24.65625,7.640625 L24.65625,11.0859375 L24.65625,12.515625 L24.65625,14.5546875 L24.65625,18 L28.1015625,18 L35.015625,18 L35.015625,14.5546875 L28.1015625,14.5546875 L28.1015625,11.0859375 L33.3046875,11.0859375 L33.3046875,7.640625 L28.1015625,7.640625 L28.1015625,4.171875 L35.015625,4.171875 L35.015625,4.171875 Z M36.984375,16.265625 L36.984375,9.796875 L36.984375,0.7265625 L40.4296875,0.7265625 L40.4296875,14.5546875 L43.8984375,14.5546875 L43.8984375,0.7265625 L47.34375,0.7265625 L47.34375,14.5546875 L50.8125,14.5546875 L50.8125,0.7265625 L54.2578125,0.7265625 L54.2578125,16.265625 C54.2578125,16.7500024 54.0937516,17.1562484 53.765625,17.484375 C53.4218733,17.8281267 53.0156273,18 52.546875,18 L47.34375,18 C46.8749977,18 46.4687517,17.8281267 46.125,17.484375 C45.7968734,17.1562484 45.6328125,16.7500024 45.6328125,16.265625 C45.6328125,16.7500024 45.4609392,17.1562484 45.1171875,17.484375 C44.7890609,17.8281267 44.3828149,18 43.8984375,18 L38.71875,18 C38.2343726,18 37.8281266,17.8281267 37.5,17.484375 C37.1562483,17.1562484 36.984375,16.7500024 36.984375,16.265625 L36.984375,16.265625 Z M66.5859375,18 L63.140625,18 L63.140625,11.0859375 L59.671875,11.0859375 L59.671875,18 L56.2265625,18 L56.2265625,12.140625 L56.2265625,8.109375 L56.2265625,2.4375 C56.2265625,1.96874766 56.3984358,1.56250172 56.7421875,1.21875 C57.0703141,0.890623359 57.4765601,0.7265625 57.9609375,0.7265625 L64.875,0.7265625 C65.3437523,0.7265625 65.7499983,0.890623359 66.09375,1.21875 C66.4218766,1.56250172 66.5859375,1.96874766 66.5859375,2.4375 L66.5859375,18 L66.5859375,18 Z M63.140625,7.640625 L63.140625,7.03125 L63.140625,4.171875 L59.671875,4.171875 L59.671875,7.640625 L63.140625,7.640625 L63.140625,7.640625 Z M77.203125,9.3515625 C77.6718773,9.3515625 78.0781233,9.52343578 78.421875,9.8671875 C78.7500016,10.1953141 78.9140625,10.6015601 78.9140625,11.0859375 L78.9140625,18 L75.46875,18 L75.46875,11.0859375 L72,11.0859375 L72,18 L68.5546875,18 L68.5546875,11.0859375 L68.5546875,7.640625 L68.5546875,4.7578125 L68.5546875,0.7265625 L72,0.7265625 L77.203125,0.7265625 C77.6718773,0.7265625 78.0781233,0.890623359 78.421875,1.21875 C78.7500016,1.56250172 78.9140625,1.96874766 78.9140625,2.4375 L78.9140625,7.640625 C78.9140625,8.10937734 78.7500016,8.51562328 78.421875,8.859375 C78.0781233,9.18750164 77.6718773,9.3515625 77.203125,9.3515625 L77.203125,9.3515625 Z M75.46875,7.640625 L75.46875,7.03125 L75.46875,4.171875 L72,4.171875 L72,7.640625 L75.46875,7.640625 L75.46875,7.640625 Z M91.2421875,0.7265625 L80.8828125,0.7265625 L80.8828125,2.015625 L80.8828125,4.171875 L84.328125,4.171875 L84.328125,18 L87.796875,18 L87.796875,4.171875 L91.2421875,4.171875 L91.2421875,0.7265625 L91.2421875,0.7265625 Z" id="stewartwerk" fill="#9B9B9B"></path>
                        <path d="M93.2109375,16.265625 L93.2109375,9.796875 L93.2109375,0.7265625 L96.65625,0.7265625 L96.65625,14.5546875 L100.125,14.5546875 L100.125,0.7265625 L103.570312,0.7265625 L103.570312,14.5546875 L107.039062,14.5546875 L107.039062,0.7265625 L110.484375,0.7265625 L110.484375,16.265625 C110.484375,16.7500024 110.320314,17.1562484 109.992188,17.484375 C109.648436,17.8281267 109.24219,18 108.773438,18 L103.570312,18 C103.10156,18 102.695314,17.8281267 102.351562,17.484375 C102.023436,17.1562484 101.859375,16.7500024 101.859375,16.265625 C101.859375,16.7500024 101.687502,17.1562484 101.34375,17.484375 C101.015623,17.8281267 100.609377,18 100.125,18 L94.9453125,18 C94.4609351,18 94.0546891,17.8281267 93.7265625,17.484375 C93.3828108,17.1562484 93.2109375,16.7500024 93.2109375,16.265625 L93.2109375,16.265625 Z M122.8125,4.171875 L122.8125,0.7265625 L115.898438,0.7265625 L112.453125,0.7265625 L112.453125,4.171875 L112.453125,7.640625 L112.453125,11.0859375 L112.453125,12.515625 L112.453125,14.5546875 L112.453125,18 L115.898438,18 L122.8125,18 L122.8125,14.5546875 L115.898438,14.5546875 L115.898438,11.0859375 L121.101562,11.0859375 L121.101562,7.640625 L115.898438,7.640625 L115.898438,4.171875 L122.8125,4.171875 L122.8125,4.171875 Z M133.429688,9.3515625 C133.89844,9.3515625 134.304686,9.52343578 134.648438,9.8671875 C134.976564,10.1953141 135.140625,10.6015601 135.140625,11.0859375 L135.140625,18 L131.695312,18 L131.695312,11.0859375 L128.226562,11.0859375 L128.226562,18 L124.78125,18 L124.78125,11.0859375 L124.78125,7.640625 L124.78125,4.7578125 L124.78125,0.7265625 L128.226562,0.7265625 L133.429688,0.7265625 C133.89844,0.7265625 134.304686,0.890623359 134.648438,1.21875 C134.976564,1.56250172 135.140625,1.96874766 135.140625,2.4375 L135.140625,7.640625 C135.140625,8.10937734 134.976564,8.51562328 134.648438,8.859375 C134.304686,9.18750164 133.89844,9.3515625 133.429688,9.3515625 L133.429688,9.3515625 Z M131.695312,7.640625 L131.695312,7.03125 L131.695312,4.171875 L128.226562,4.171875 L128.226562,7.640625 L131.695312,7.640625 L131.695312,7.640625 Z M147.46875,18 L144.023438,18 L144.023438,11.0859375 L140.554688,11.0859375 L140.554688,18 L137.109375,18 L137.109375,10.8046875 L137.109375,0.7265625 L140.554688,0.7265625 L140.554688,7.640625 L141.304688,7.640625 C141.929691,6.09374227 142.867181,3.78907781 144.117188,0.7265625 L148.007812,0.7265625 C147.289059,2.25782016 146.210945,4.56248461 144.773438,7.640625 L145.757812,7.640625 C146.226565,7.640625 146.632811,7.80468586 146.976562,8.1328125 C147.304689,8.47656422 147.46875,8.88281016 147.46875,9.3515625 L147.46875,18 Z" id="stewartwerk" fill="#4A4A4A"></path>
                    </g>
                </g>
            </g>
        </g>
    </g>
</svg>