<?xml version="1.0" encoding="utf-8"?>
<!-- Generator: Adobe Illustrator 19.2.1, SVG Export Plug-In . SVG Version: 6.00 Build 0)  -->
<svg version="1.1" id="Layer_1" xmlns="http://www.w3.org/2000/svg" xmlns:xlink="http://www.w3.org/1999/xlink" x="0px" y="0px"
	 viewBox="0 0 350 250" style="enable-background:new 0 0 350 250;" xml:space="preserve">
<style type="text/css">
	.st0{opacity:0.1;}
	.st1{fill:#010101;}
</style>
<g id="Livello_46" class="st0">
	<path class="st1" d="M105.3,79.2c0-10.6-8.5-19.1-19-19.1s-19,8.6-19,19.1s8.5,19.1,19,19.1S105.3,89.7,105.3,79.2 M61.7,198.5
		c0,0-0.2,0.3-0.4,0.7h227.5c0,0,0,0-0.1-0.1L211,93.4c0,0-9.2-12.5-18.4,0l-48,65.4l-17.7-24.1c0,0-9.2-12.5-18.4,0L61.7,198.5z
		 M296.4,206H53.5V43.3h242.9L296.4,206L296.4,206z M306.5,211.1V38.2c0-2.8-2.3-5.1-5.1-5.1h-253c-2.8,0-5.1,2.3-5.1,5.1v172.9
		c0,2.8,2.3,5.1,5.1,5.1h253C304.3,216.2,306.5,213.9,306.5,211.1"/>
</g>
<g id="Livello_1_1_">
</g>
</svg>
